<svg width="32" height="32" viewBox="0 0 32 32" fill="none" xmlns="http://www.w3.org/2000/svg">
<path d="M25.5328 0H6.46319C2.89164 0 0 2.892 0 6.464V25.54C0 29.108 2.89164 32 6.46319 32H25.5368C29.1044 32 32 29.108 32 25.536V6.464C31.996 2.892 29.1044 0 25.5328 0Z" fill="url(#paint0_linear_287_2599)"/>
<path d="M15.8622 7.35245L16.5101 6.23245C16.9101 5.53245 17.802 5.29645 18.5019 5.69645C19.2018 6.09645 19.4378 6.98845 19.0378 7.68845L12.7946 18.4964H17.31C18.7739 18.4964 19.5938 20.2164 18.9578 21.4084H5.71949C4.91159 21.4084 4.26367 20.7604 4.26367 19.9524C4.26367 19.1444 4.91159 18.4964 5.71949 18.4964H9.43103L14.1824 10.2604L12.6986 7.68445C12.2987 6.98445 12.5346 6.10045 13.2345 5.69245C13.9345 5.29245 14.8184 5.52845 15.2263 6.22845L15.8622 7.35245ZM10.2469 22.9084L8.8471 25.3364C8.44715 26.0364 7.55526 26.2724 6.85535 25.8724C6.15544 25.4724 5.91946 24.5804 6.31941 23.8804L7.35928 22.0804C8.53514 21.7164 9.49102 21.9964 10.2469 22.9084ZM22.3014 18.5044H26.0889C26.8968 18.5044 27.5448 19.1524 27.5448 19.9604C27.5448 20.7684 26.8968 21.4164 26.0889 21.4164H23.9852L25.405 23.8804C25.805 24.5804 25.569 25.4644 24.8691 25.8724C24.1692 26.2724 23.2853 26.0364 22.8773 25.3364C20.4856 21.1884 18.6899 18.0844 17.498 16.0164C16.2782 13.9124 17.1501 11.8004 18.01 11.0844C18.9658 12.7244 20.3937 15.2004 22.3014 18.5044Z" fill="white"/>
<defs>
<linearGradient id="paint0_linear_287_2599" x1="16" y1="0" x2="16" y2="32" gradientUnits="userSpaceOnUse">
<stop stop-color="#18BFFB"/>
<stop offset="1" stop-color="#2072F3"/>
</linearGradient>
</defs>
</svg>
